<?xml version="1.0" encoding="utf-8"?>
<!-- Generator: Adobe Illustrator 16.0.0, SVG Export Plug-In . SVG Version: 6.00 Build 0)  -->
<!DOCTYPE svg PUBLIC "-//W3C//DTD SVG 1.0//EN" "http://www.w3.org/TR/2001/REC-SVG-20010904/DTD/svg10.dtd">
<svg version="1.0" id="Layer_1" xmlns="http://www.w3.org/2000/svg" xmlns:xlink="http://www.w3.org/1999/xlink" x="0px" y="0px"
	 width="145px" height="137px" viewBox="0 -29.498 145 137" enable-background="new 0 -29.498 145 137" xml:space="preserve">
<g>
	<path fill="#998D76" d="M76.54,1.546c-0.347,0.749-0.577,1.435-0.724,2.109c-0.266-0.092-0.53-0.184-0.787-0.272l-3.476-1.191
		l-0.511,2.254c-0.757,3.221-1.086,6.02-1.086,8.454c0,10.334,5.942,14.085,10.377,15.731c-1.638,2.44-2.267,4.834-2.835,7.012
		c-0.741,2.84-1.382,5.292-4.141,7.738c-2.331,2.066-3.614,3.205-14.46,1.988c-4.953-0.557-10.096-0.672-15.286-0.342
		c-13.671,0.869-25.048,4.604-30.26,7.922l-5.712,3.635l6.767,0.217c34.186,1.094,58.906,8.373,69.611,20.496l2.189,0.67l0.42-0.244
		c12.781-7.377,20.729-16.295,23.668-26.52c1.434,0,2.844,0,3.732,0c1.357,1.262,3.76,3.121,4.908,3.916l0.645,0.447l0.777-0.088
		c8.777-0.986,14.692-3.638,18.078-8.086c1.682-0.963,4.016-2.884,5.41-4.785l0.952-1.299l-1.013-1.252
		c-3.98-4.927-9.521-9.573-15.323-12.912c-0.028-0.508-0.116-2.087-0.116-2.087l-0.902-0.576c-5.153-3.29-12.287-5.502-16.617-6.514
		c-0.617-4.041-2.299-7.012-5.026-8.829c-5.761-3.841-14.845-5.953-25.362-8.398L77.252,0L76.54,1.546L76.54,1.546z"/>
	<path fill="#998D76" d="M85.137,18.627H45.223c0,0-32.883,46.758-33.08,47.037C11.908,65.904,0,78.004,0,78.004h46.686
		c0,0-2.125-7.545-2.531-8.986c0.81-1.153,8.916-12.715,13.96-19.908c-0.678,7.427-1.546,16.941-1.615,17.688
		c-0.584,0.822-7.974,11.207-7.974,11.207h37.682l1.002-59.377L85.137,18.627L85.137,18.627z"/>
	<polygon fill="#002D62" points="60.91,41.482 41.874,68.631 43.926,75.912 4.989,75.912 13.753,67.008 46.309,20.717 
		85.137,20.717 85.583,75.912 52.578,75.912 58.53,67.549 	"/>
	<polygon fill="#FFFFFF" points="47.871,24.3 16.215,69.311 12.945,72.33 39.493,72.33 38.263,67.965 65.561,29.369 61.711,68.838 
		58.928,72.33 81.971,72.33 81.583,24.3 	"/>
	<path fill="#002D62" d="M126.439,28.388l-0.119-2.144c-5.6-3.574-13.817-5.837-17.391-6.552c-0.307-3.792-1.504-6.958-4.289-8.814
		c-5.717-3.812-15.457-5.952-26.205-8.456c-0.713,1.548-0.832,2.619-0.596,4.049c-1.43-0.357-3.334-1.072-4.764-1.549
		c-4.168,17.748,5.122,21.084,10.839,22.633c-5.956,5.955-2.858,11.791-9.171,17.388c-2.711,2.404-4.408,3.812-16.081,2.502
		c-5.13-0.575-10.165-0.633-14.92-0.331c-13.323,0.848-24.443,4.524-29.271,7.6c33.471,1.07,59.437,7.979,71.11,21.199
		c14.65-8.455,21.083-18.104,23.107-26.8h6.193c0.715,0.835,3.692,3.216,5.241,4.287c10.601-1.19,14.89-4.764,16.914-7.623
		c1.429-0.715,3.812-2.618,5.121-4.405C137.635,35.773,131.68,31.246,126.439,28.388L126.439,28.388z"/>
	<path fill="#FFFFFF" d="M102.021,47.922c0.834,0.357,1.905,0.834,3.097,1.072c-1.431,5.24-6.789,17.033-20.845,21.439
		c4.646-3.812,10.125-10.125,11.555-12.982l0.119,2.264C97.971,57.213,100.95,52.805,102.021,47.922L102.021,47.922z"/>
	<path fill="#FFFFFF" d="M122.866,32.318c2.739,1.072,10.721,5.479,14.649,9.53l-1.668,1.903c0,0-1.785-1.785-2.738-2.262
		c0.716,2.262,0.716,2.856,0.478,3.69c-0.596,1.072-1.787,2.146-2.979,2.502c-6.312,0.119-6.67-6.074,0.119-5.955
		C129.178,39.346,125.963,35.177,122.866,32.318L122.866,32.318z"/>
	<path fill="#FFFFFF" d="M120.245,48.398c2.024-0.119,4.765-0.119,6.79,0.477c-0.834,0.715-2.383,1.191-3.692,1.547
		C123.342,50.422,121.198,49.232,120.245,48.398L120.245,48.398z"/>
	<path fill="#998D76" d="M83.439,6.709c3.099,1.311,14.509,4.762,16.558,5.718c3.573,1.667,3.692,4.05,5.358,7.861
		c0,0-1.787-0.12-2.978,0c-0.714-2.739-2.382-6.194-6.192-7.505C92.373,11.474,84.512,9.449,83.439,6.709L83.439,6.709z"/>
	<path fill="#998D76" d="M78.914,10.64c7.146,2.024,16.316,2.502,18.818,14.771c-2.739-3.455-8.575-7.861-12.625-9.172
		C81.057,14.928,79.627,12.902,78.914,10.64L78.914,10.64z"/>
	<path fill="#998D76" d="M103.211,22.551c3.693,0.715,12.27,1.787,19.773,5.479c-4.526-0.952-16.676-2.5-19.654-2.619
		C103.331,25.41,103.331,23.504,103.211,22.551L103.211,22.551z"/>
	<path fill="#998D76" d="M105.713,30.889c2.74-0.119,8.695,0.596,13.104,2.621c-0.834,2.739-2.979,6.074-4.766,7.98
		c0.834-2.145,1.787-4.526,2.025-5.955C113.812,34.104,110.598,32.318,105.713,30.889L105.713,30.889z"/>
	<path fill="#FFFFFF" d="M75.339,57.213c-5.061-3.375-11.717-7.811-31.595-10.1c-13.323,0.848-24.443,4.525-29.271,7.598
		C38.534,46.492,64.62,50.9,75.339,57.213L75.339,57.213z"/>
</g>
</svg>
