<?xml version="1.0" encoding="utf-8"?>
<!-- Generator: Adobe Illustrator 16.0.0, SVG Export Plug-In . SVG Version: 6.00 Build 0)  -->
<!DOCTYPE svg PUBLIC "-//W3C//DTD SVG 1.0//EN" "http://www.w3.org/TR/2001/REC-SVG-20010904/DTD/svg10.dtd">
<svg version="1.0" id="Artwork" xmlns="http://www.w3.org/2000/svg" xmlns:xlink="http://www.w3.org/1999/xlink" x="0px" y="0px"
	 width="106px" height="105px" viewBox="-19 -9.5 106 105" enable-background="new -19 -9.5 106 105" xml:space="preserve">
<g>
	<path fill="#FFFFFF" d="M1,24c0,0,7.865,0,11,0c0,7.404,0,29.592,0,37c-3.135,0-11,0-11,0v24.854h62V61c0,0-7.869,0-11,0
		c0-7.408,0-29.596,0-37c3.131,0,11,0,11,0V0H1V24z"/>
	<polyline fill="#FF5A00" points="58,19 58,5 6,5 6,19 18,19 18,66.05 6,66.05 6,81 58,81 58,66 46,66 46,19 58,19 	"/>
	<path fill="#002641" d="M4,3h56v18H49v43h11v19.172H4V64c0,0,7.815,0,11,0c0-4.501,0-38.502,0-43c-3.185,0-11,0-11,0V3 M1,24
		c0,0,7.865,0,11,0c0,7.404,0,29.592,0,37c-3.135,0-11,0-11,0v24.854h62V61c0,0-7.869,0-11,0c0-7.408,0-37,0-37h11V0H1V24z"/>
	<path fill="#002641" d="M66.564,85.407c-0.908,0-1.643-0.735-1.643-1.642c0-0.908,0.732-1.643,1.643-1.643
		c0.906,0,1.638,0.734,1.638,1.643C68.202,84.672,67.471,85.407,66.564,85.407 M66.564,81.68c-1.154,0-2.092,0.934-2.092,2.086
		c0,1.154,0.938,2.088,2.092,2.088c1.151,0,2.086-0.934,2.086-2.088S67.717,81.68,66.564,81.68z"/>
	<path fill="#002641" d="M66.713,83.541h-0.561v-0.518h0.561c0.145,0,0.26,0.113,0.26,0.259
		C66.973,83.427,66.857,83.541,66.713,83.541 M67.422,83.282c0-0.394-0.318-0.708-0.709-0.708h-1.007v2.384h0.446V83.99h0.322
		l0.451,0.968h0.495l-0.473-1.01C67.225,83.854,67.422,83.591,67.422,83.282z"/>
</g>
</svg>
