<?xml version="1.0" encoding="utf-8"?>
<!-- Generator: Adobe Illustrator 16.0.0, SVG Export Plug-In . SVG Version: 6.00 Build 0)  -->
<!DOCTYPE svg PUBLIC "-//W3C//DTD SVG 1.0//EN" "http://www.w3.org/TR/2001/REC-SVG-20010904/DTD/svg10.dtd">
<svg version="1.0" id="Artwork" xmlns="http://www.w3.org/2000/svg" xmlns:xlink="http://www.w3.org/1999/xlink" x="0px" y="0px"
	 width="106px" height="105px" viewBox="-10 -9.5 106 105" enable-background="new -10 -9.5 106 105" xml:space="preserve">
<g>
	<path fill="#231F20" d="M86.658,78.938H58.555V46.405L47.281,71.641H36.27L24.988,46.396v32.543H-2.73l7.246-15.787L4.52,10.922
		L-2.132-6.675h26.106l17.789,40.834L59.563-6.675H85.56L79.027,10.83v52.3L86.658,78.938z"/>
	<path fill="#FFD520" d="M83.462,76.94H60.564V36.974L45.971,69.643h-8.396L22.976,36.969V76.94H0.397L6.525,63.59L6.53,10.561
		L0.772-4.677H22.65l19.112,43.867L60.888-4.677h21.779L77.01,10.472v53.115L83.462,76.94z"/>
	<polygon fill="#E31837" points="81.142,75.488 75.545,63.914 75.545,10.212 80.564,-3.224 61.851,-3.224 41.763,42.85 
		21.688,-3.224 2.886,-3.224 7.995,10.298 7.99,63.902 2.675,75.488 21.511,75.488 21.511,30.112 38.528,68.19 45.021,68.19 
		62.026,30.117 62.026,75.488 	"/>
	<g>
		<polygon fill="#231F20" points="66.966,85.36 62.076,85.36 66.112,87.947 66.112,90.577 71.07,90.577 66.966,87.848 		"/>
		<polygon fill="#231F20" points="77.051,87.035 81.236,89.774 81.236,90.577 83.378,90.577 82.092,89.723 82.092,85.36 
			76.206,85.36 76.206,85.822 75.495,85.36 71.154,85.36 71.154,90.577 77.051,90.577 		"/>
		<polygon fill="#231F20" points="56.848,85.36 56.848,87.947 56.848,90.577 61.923,90.577 61.923,85.36 		"/>
		<polygon fill="#FFD520" points="62.076,85.36 61.923,85.36 61.923,90.577 66.112,90.577 66.112,87.947 		"/>
		<polygon fill="#FFD520" points="66.966,85.36 66.966,87.848 71.07,90.577 71.154,90.577 71.154,85.36 		"/>
		<polygon fill="#FFD520" points="76.206,85.36 75.495,85.36 76.206,85.822 		"/>
		<polygon fill="#FFD520" points="77.051,87.035 77.051,90.577 81.236,90.577 81.236,89.774 		"/>
		<polygon fill="#FFD520" points="83.378,90.577 84.883,90.577 83.05,87.925 84.865,85.36 82.092,85.36 82.092,89.723 		"/>
		<path fill="#FFFFFF" d="M27.33,87.947c0.004-0.873,1.296-1.592,3.08-1.701c0.071-0.321,0.169-0.618,0.295-0.886h-3.577
			l-0.004,2.587H27.33L27.33,87.947z"/>
		<path fill="#FFFFFF" d="M39.709,85.976V85.36h-5.885c0.087,0.188,0.169,0.394,0.232,0.615H39.709z"/>
		<path fill="#FFFFFF" d="M56.599,87.947c0,0,0,0,0,0.005c0,0.881-1.287,1.597-3.075,1.705c-0.074,0.34-0.179,0.648-0.312,0.92
			h3.636v-2.63H56.599z"/>
		<path fill="#FFFFFF" d="M44.157,89.933v0.645h5.965c-0.098-0.196-0.181-0.413-0.244-0.645H44.157z"/>
		<path fill="#E31837" d="M34.056,89.933c-0.068,0.229-0.149,0.448-0.247,0.645h5.899v-0.645H34.056z"/>
		<path fill="#E31837" d="M27.33,87.952c0-0.005,0-0.005,0-0.005h-0.207v2.63h3.599c-0.133-0.27-0.24-0.58-0.313-0.92
			C28.622,89.548,27.33,88.832,27.33,87.952z"/>
		<path fill="#E31837" d="M56.599,87.947h0.249V85.36h-3.62c0.122,0.267,0.225,0.563,0.296,0.886
			C55.306,86.355,56.594,87.079,56.599,87.947z"/>
		<path fill="#E31837" d="M49.878,85.976c0.061-0.222,0.14-0.427,0.23-0.615h-5.951v0.615H49.878z"/>
		<path fill="#FFFFFF" d="M27.33,87.947c0,0,0,0,0,0.005c0,0.881,1.292,1.597,3.08,1.705c0.072,0.34,0.179,0.648,0.313,0.92h3.088
			c0.097-0.196,0.179-0.413,0.247-0.645h5.653v0.645h2.225v-2.63H27.33z"/>
		<path fill="#E31837" d="M56.599,87.952c0-0.005,0-0.005,0-0.005H41.934v2.63h2.223v-0.645h5.721
			c0.063,0.229,0.146,0.448,0.244,0.645h3.09c0.131-0.27,0.235-0.58,0.312-0.92C55.311,89.548,56.599,88.832,56.599,87.952z"/>
		<path fill="#FFFFFF" d="M56.599,87.947c-0.005-0.868-1.293-1.592-3.075-1.701c-0.071-0.321-0.172-0.618-0.296-0.886h-3.118
			c-0.091,0.188-0.168,0.394-0.229,0.615h-5.722V85.36h-2.223v2.587H56.599L56.599,87.947z"/>
		<path fill="#E31837" d="M27.33,87.947h14.606V85.36H39.71v0.615h-5.653c-0.063-0.222-0.145-0.427-0.232-0.615h-3.119
			c-0.124,0.267-0.224,0.563-0.295,0.886C28.626,86.355,27.334,87.074,27.33,87.947z"/>
		<polygon fill="#231F20" points="-0.928,85.36 0.885,87.921 -0.944,90.577 2.436,90.577 2.436,85.36 		"/>
		<polygon fill="#231F20" points="22.616,85.36 16.728,85.36 16.728,85.822 16.013,85.36 11.667,85.36 11.667,90.577 17.569,90.577 
			17.569,87.035 21.76,89.774 21.76,90.577 23.905,90.577 22.616,89.723 		"/>
		<polygon fill="#231F20" points="7.481,85.36 2.587,85.36 6.623,87.947 6.623,90.577 11.588,90.577 7.481,87.848 		"/>
		<polygon fill="#FFD520" points="2.587,85.36 2.436,85.36 2.436,90.577 6.623,90.577 6.623,87.947 		"/>
		<polygon fill="#FFD520" points="7.481,85.36 7.481,87.848 11.588,90.577 11.667,90.577 11.667,85.36 		"/>
		<polygon fill="#FFD520" points="16.728,85.36 16.013,85.36 16.728,85.822 		"/>
		<polygon fill="#FFD520" points="17.569,87.035 17.569,90.577 21.76,90.577 21.76,89.774 		"/>
		<polygon fill="#FFD520" points="27.127,85.36 22.616,85.36 22.616,89.723 23.905,90.577 27.123,90.577 27.123,87.947 		"/>
	</g>
	<path fill="#231F20" d="M87.435,91.965H-3.5l2.404-4.035l-2.399-3.956h90.93l-2.402,3.956L87.435,91.965z M-0.944,90.577h85.827
		l-1.833-2.652l1.815-2.564H-0.928l1.813,2.562L-0.944,90.577z"/>
	<path d="M90.054,89.15h2.358v0.38h-0.944V92h-0.46v-2.47h-0.952v-0.38H90.054z"/>
	<path d="M92.776,89.15h0.77l0.848,2.282l0.846-2.282H96V92h-0.457v-2.364h-0.07l-0.846,2.254h-0.482l-0.838-2.254H93.23V92h-0.458
		v-2.85H92.776z"/>
</g>
</svg>
