<?xml version="1.0" encoding="utf-8"?>
<!-- Generator: Adobe Illustrator 16.0.0, SVG Export Plug-In . SVG Version: 6.00 Build 0)  -->
<!DOCTYPE svg PUBLIC "-//W3C//DTD SVG 1.0//EN" "http://www.w3.org/TR/2001/REC-SVG-20010904/DTD/svg10.dtd">
<svg version="1.0" id="Artwork" xmlns="http://www.w3.org/2000/svg" xmlns:xlink="http://www.w3.org/1999/xlink" x="0px" y="0px"
	 width="108px" height="105px" viewBox="-3.25 -19 108 105" enable-background="new -3.25 -19 108 105" xml:space="preserve">
<g>
	<polygon fill="#FFD520" points="50.485,59.949 30.45,27.572 30.45,51.552 38.678,51.552 38.614,74.333 2.679,74.333 2.679,51.552 
		9.878,51.552 9.878,16.781 2.679,16.781 2.679,-6 31.032,-6 50.574,25.547 70.161,-6 98.334,-6 98.334,16.781 91.134,16.781 
		91.134,51.552 98.334,51.552 98.334,74.333 62.423,74.333 62.423,51.552 70.562,51.552 70.562,27.572 	"/>
	<path fill="#FFD520" d="M102.175,71.141v-0.657h0.357c0.192,0,0.446,0.014,0.446,0.29c0,0.312-0.133,0.367-0.358,0.367H102.175z
		 M102.175,71.609h0.236l0.554,1.159h0.595l-0.611-1.214c0.329-0.031,0.578-0.206,0.578-0.711c0-0.642-0.369-0.831-0.98-0.831
		h-0.879v2.756h0.506v-1.159H102.175z M104.75,71.382c0-1.629-1.041-2.566-2.202-2.566c-1.178,0-2.218,0.938-2.218,2.566
		c0,1.631,1.041,2.569,2.218,2.569C103.709,73.951,104.75,73.013,104.75,71.382z M104.107,71.382c0,1.181-0.711,1.978-1.56,1.978
		l0,0c-0.88,0-1.578-0.797-1.578-1.978c0-1.18,0.698-1.977,1.578-1.977C103.396,69.405,104.107,70.202,104.107,71.382z"/>
</g>
</svg>
