<?xml version="1.0" encoding="utf-8"?>
<!-- Generator: Adobe Illustrator 16.0.4, SVG Export Plug-In . SVG Version: 6.00 Build 0)  -->
<!DOCTYPE svg PUBLIC "-//W3C//DTD SVG 1.1//EN" "http://www.w3.org/Graphics/SVG/1.1/DTD/svg11.dtd">
<svg version="1.1" id="Artwork" xmlns="http://www.w3.org/2000/svg" xmlns:xlink="http://www.w3.org/1999/xlink" x="0px" y="0px"
	 width="80px" height="92px" viewBox="0 0 80 92" enable-background="new 0 0 80 92" xml:space="preserve">
<g>
	<g>
		<path fill="#005039" d="M74.346,6.318c0,0-4.766,10.229-7.188,15.312c-11.865-5.461-27.428-6.236-40.5,1.506
			c-8.717,5.332-15.744,14.801-16.473,24.971c-0.246,6.781,2.701,14.201,1.73,20.984c-0.242,3.631-1.076,7.256-2.771,10.4
			C6.967,83.125,4.355,86.275,0,86.516c0.967-1.207,7.693-4.525,5.051-19.764c-1.049-6.043-9.355-21.029-1.328-39.812
			C11.053,9.787,42.76-10.537,74.346,6.318z"/>
		<path fill="#005039" d="M38.016,36.395c4.104-1.479,8.705-1.508,13.062-0.545c8.232,1.455,14.396,6.426,17.4,13.803
			c3.145,7.715,5.398,13.949,10.801,20.545c0.152,0.189-8.432-1.262-8.4-1.498C72.977,53.4,58.518,52.771,54.529,58.5
			c3.002,3.299,8.148,4.994,12.152,4.35c-0.85,15.193,3.389,28.977,3.15,28.943c-3.447-0.477-19.234-9.766-23.848-13.799
			c-6.785,1.213-12.094,3.717-19.947,4.803c-0.242,0.031,1.443-5.797,1.201-8.701c0-7.99-6.127-15.479-1.793-25.293
			C28.039,42.916,31.959,38.576,38.016,36.395z"/>
		<g>
			<path fill="#005039" d="M43.693,31.785c0.461,0.006,1.16,0.113,1.172,0.066c0.133-0.529,0.561-4.316,3.787-7.078
				c3.59-3.072,8.314-2.768,8.262-2.797c-4.701-1.441-9.549-1.541-12.891-1.244L43.693,31.785z"/>
			<path fill="#005039" d="M13.779,45.57c-0.711,4.553-0.76,8.777-0.379,11.023c0.01,0.027,0.68-3.855,2.887-6.043
				c1.926-1.908,4.379-2.281,5.248-2.248c0-0.016,0.439-1.49,0.377-1.494L13.779,45.57z"/>
			<path fill="#005039" d="M22.887,44.727c0.238-0.607,0.523-1.143,0.877-1.832l-8.355-3.242c-0.518,1.047-0.908,2.604-1.107,3.447
				L22.887,44.727z"/>
			<path fill="#005039" d="M24.902,41.541c0.025-0.029,1.34-1.707,1.365-1.691l-7.656-5.756c-0.799,1.012-1.447,2.115-1.971,3.283
				L24.902,41.541z"/>
			<path fill="#005039" d="M27.752,38.404c0.041-0.041,1.703-1.545,1.703-1.545l-6.633-7.543c-1.498,1.299-1.949,1.885-2.863,2.994
				L27.752,38.404z"/>
			<path fill="#005039" d="M31.197,35.791c0.018,0.092,1.908-1.059,1.949-1.143l-4.926-8.973c-1.887,0.91-3.092,1.885-3.643,2.273
				L31.197,35.791z"/>
			<path fill="#005039" d="M34.85,33.803c2.352-0.797,2.344-0.824,2.344-0.781l-2.797-10.078c-1.562,0.453-3.668,1.357-4.16,1.691
				L34.85,33.803z"/>
			<path fill="#005039" d="M39.014,32.436c0.082,0.043,2.119-0.455,2.146-0.455l0.26-10.922c-0.086,0.084-2.537,0.453-4.617,1.039
				L39.014,32.436z"/>
		</g>
	</g>
	<g>
		<path fill="#005039" d="M76.793,88.285c1.039,0,1.846,0.811,1.846,1.838c0,1.051-0.807,1.859-1.859,1.859
			c-1.051,0-1.883-0.809-1.883-1.859c0-1.027,0.832-1.838,1.883-1.838H76.793z M76.768,88.609c-0.83,0-1.467,0.684-1.467,1.514
			c0,0.854,0.637,1.525,1.492,1.525c0.818,0.012,1.443-0.672,1.443-1.518c0-0.838-0.625-1.521-1.457-1.521H76.768z M76.447,91.141
			h-0.361v-1.93c0.197-0.035,0.402-0.061,0.67-0.061c0.324,0,0.484,0.061,0.6,0.15c0.115,0.08,0.197,0.234,0.197,0.42
			c0,0.229-0.172,0.379-0.369,0.447v0.023c0.164,0.07,0.254,0.221,0.312,0.475c0.057,0.291,0.102,0.402,0.152,0.475h-0.371
			c-0.057-0.072-0.107-0.244-0.164-0.496c-0.041-0.223-0.172-0.311-0.439-0.311h-0.227V91.141z M76.447,90.053h0.238
			c0.256,0,0.498-0.08,0.498-0.299c0-0.186-0.127-0.324-0.461-0.324c-0.135,0-0.223,0.012-0.275,0.02V90.053z"/>
	</g>
</g>
</svg>
