<?xml version="1.0" encoding="utf-8"?>
<!-- Generator: Adobe Illustrator 16.0.0, SVG Export Plug-In . SVG Version: 6.00 Build 0)  -->
<!DOCTYPE svg PUBLIC "-//W3C//DTD SVG 1.0//EN" "http://www.w3.org/TR/2001/REC-SVG-20010904/DTD/svg10.dtd">
<svg version="1.0" id="Artwork" xmlns="http://www.w3.org/2000/svg" xmlns:xlink="http://www.w3.org/1999/xlink" x="0px" y="0px"
	 width="106px" height="105px" viewBox="-20.6 -2.103 106 105" enable-background="new -20.6 -2.103 106 105" xml:space="preserve">
<g>
	<path fill="#393A96" d="M62.538,7.394v86.504H49.463L9.276,36.396c0,0,0,22.222,0,23.251c0,1.025,0.456,1.842,0.767,2.354
		c0.311,0.512,14.543,21.662,14.543,21.662v10.234H2.262V7.394h12.996l40.158,57.049V41.876c-0.129-2-1.104-3.425-2.19-5.068
		L40.407,17.854V7.394H62.538z"/>
	<path fill="#393A96" d="M31.305,89.804c0.458,0.427,0.686,0.94,0.686,1.54c0,0.609-0.228,1.127-0.686,1.557
		c-0.458,0.426-1.018,0.64-1.672,0.64s-1.21-0.214-1.672-0.64c-0.455-0.43-0.682-0.947-0.682-1.557c0-0.6,0.23-1.113,0.686-1.54
		c0.461-0.427,1.017-0.637,1.668-0.637C30.285,89.167,30.844,89.377,31.305,89.804z M31.578,89.559
		c-0.537-0.489-1.182-0.736-1.944-0.736c-0.755,0-1.401,0.247-1.931,0.736c-0.538,0.494-0.803,1.092-0.803,1.785
		c0,0.704,0.263,1.307,0.795,1.8c0.533,0.498,1.182,0.746,1.939,0.746c0.761,0,1.408-0.248,1.944-0.746
		c0.535-0.492,0.802-1.094,0.802-1.8C32.38,90.651,32.112,90.053,31.578,89.559z M30.042,91.229
		c-0.114,0.041-0.28,0.063-0.508,0.063h-0.479v-1.007h0.452c0.295,0,0.509,0.032,0.642,0.102c0.135,0.069,0.201,0.206,0.201,0.409
		C30.35,91.012,30.247,91.153,30.042,91.229z M28.526,92.729h0.529v-1.096h0.421c0.281,0,0.478,0.028,0.593,0.091
		c0.189,0.1,0.281,0.317,0.281,0.64v0.223l0.014,0.085c0.002,0.012,0.004,0.026,0.005,0.035c0.004,0.004,0.009,0.016,0.009,0.022
		h0.497l-0.018-0.031c-0.013-0.021-0.021-0.071-0.028-0.147c-0.003-0.072-0.003-0.141-0.003-0.21v-0.197
		c0-0.144-0.06-0.285-0.169-0.43c-0.107-0.151-0.28-0.242-0.521-0.277c0.189-0.027,0.334-0.07,0.44-0.133
		c0.196-0.115,0.294-0.302,0.294-0.547c0-0.353-0.159-0.59-0.468-0.703c-0.174-0.069-0.448-0.1-0.823-0.1h-1.054L28.526,92.729
		L28.526,92.729z"/>
</g>
</svg>
