<?xml version="1.0" encoding="utf-8"?>
<!-- Generator: Adobe Illustrator 16.0.4, SVG Export Plug-In . SVG Version: 6.00 Build 0)  -->
<!DOCTYPE svg PUBLIC "-//W3C//DTD SVG 1.1//EN" "http://www.w3.org/Graphics/SVG/1.1/DTD/svg11.dtd">
<svg version="1.1" id="Artwork" xmlns="http://www.w3.org/2000/svg" xmlns:xlink="http://www.w3.org/1999/xlink" x="0px" y="0px"
	 width="106px" height="105px" viewBox="0 0 106 105" enable-background="new 0 0 106 105" xml:space="preserve">
<g>
	<g>
		<path fill="#FFFFFF" d="M88.727,33.189l-0.018-13.393L68.865,0H37.75L17.648,19.732l0.025,13.434
			c-9.781,3.365-17.582,7.393-17.582,7.393L0,91.928l5.898,3.834l7.787-4.699l3.59-6.961l20.514,19.918l30.963-0.086l15.922-15.83
			c0.707,0.979,1.859,1.617,3.178,1.617c1.465,0,2.74-0.799,3.412-1.986c4.211,3.172,14.457,11.428,14.457,11.428l0.012-58.738
			C105.732,40.424,95.635,35.4,88.727,33.189z M13.434,85.246l-1.812,3.887c-0.309,0.17-5.154,3.105-5.672,3.428l-3.086-2.068
			V50.729l1.951-3.723c1.916-1.07,3.828-1.943,5.822-2.877l2.836,2.07L13.434,85.246z M38.738,68.957v6.307l7.674,7.574
			l13.754,0.098l7.52-7.689l0.008-6.33c4.701,0.922,8.768,2.154,12.766,3.85v7.783L65.426,95.744l-24.289-0.189L25.969,80.619v-7.84
			C29.771,71.139,34.207,69.854,38.738,68.957z M28.037,69.559l0.078-31.244c1.24-0.332,2.477-0.572,3.721-0.857l-0.014,30.871
			C30.436,68.744,29.291,69.141,28.037,69.559z M67.195,66.551c-1.262-0.227-2.715-0.404-4.098-0.604V39.584
			c0,0-1.695-0.191-2.811-0.299l-0.008-3.902c3.383,0.299,6.383,0.615,9.746,1.211v3.936c-1.408-0.24-2.961-0.457-2.961-0.457
			L67.195,66.551z M48.729,77.256l9.105-0.016l4.314-4.32v-4.822c1.057,0.131,1.855,0.252,2.891,0.428l-0.016,5.588l-6.08,6.129
			l-11.42-0.084l-6.098-5.973v-5.727c1.037-0.182,1.857-0.205,2.91-0.342v4.879L48.729,77.256z M55.211,70.75l-0.035-17.035h-5.111
			l-3.041-2.887V32.139l2.803-2.752h6.811l2.75,2.74l-0.014,11.352l-4.051,0.006l-0.004-9.834l-4.127-0.02l0.012,15.34l5.156-0.006
			l2.992,2.869l0.078,19.98l-2.775,2.803l-6.82-0.041l-2.811-2.762V59.291h4.08V70.75H55.211z M65.006,33.43
			c-1.055-0.133-1.904-0.262-2.945-0.359v-2.098l-4.318-4.299h-8.984l-4.426,4.316v2.127c-1.041,0.102-1.855,0.141-2.906,0.275
			v-3.586l6.176-6.049h11.373l6.031,6.053V33.43z M43.959,38.402l-0.082,25.287l-1.84,2.416c-2.189,0.336-3.889,0.611-6.156,1.158
			l-2.004-1.805l-0.033-25.896l2.215-2.908c1.781-0.332,3.555-0.547,5.324-0.781L43.959,38.402z M77.033,69.154V55.113l-2.41-0.689
			v13.904c-1.205-0.389-2.434-0.643-3.682-0.967l-0.004-27.891l2.471-2.26c1.795,0.383,3.369,0.672,5.168,1.158l2.111,3.805v28.365
			C79.5,70.012,78.277,69.613,77.033,69.154z M80.449,36.357c-4.34-1.197-8.484-1.988-12.773-2.621v-5.059l-7.578-7.588H46.473
			l-7.73,7.537v5.141c-4.293,0.646-8.459,1.393-12.799,2.604V23.35L41.191,8.334h24.174l15.084,15.084V36.357z M26.082,38.863
			l-0.01,31.438c-1.305,0.551-2.34,0.951-3.59,1.557l-0.035-14.998c-1.105,0.377-2.553,1.004-2.553,1.004l0.039,15.316
			c-1.635,0.988-2.68,1.494-4.041,2.43L15.9,42.094c1.279-0.521,2.484-0.867,3.777-1.334l0.043,12.893l2.51-0.961V39.988
			C23.51,39.514,24.793,39.234,26.082,38.863z M87.852,87.928c-1.188,0-2.129-0.951-2.129-2.129c0-1.188,0.941-2.139,2.129-2.139
			c1.184,0,2.129,0.951,2.129,2.139C89.98,86.977,89.035,87.928,87.852,87.928z M91.654,82.604
			c-1.709-1.453-3.551-2.707-5.633-3.955l0.004,4.312l-18.385,18.398l-28.746-0.029L20.336,82.881v-4.398
			c-1.486,0.869-3.117,2.248-4.439,3.297V78.32c2.189-1.607,4.332-2.92,7.385-4.406v7.848l16.758,16.666l26.48,0.016L83.139,81.67
			l0.012-7.756c3.191,1.512,6.002,3.379,8.504,5.293V82.604z M92.279,46.965c-0.244-0.109-3.574-1.395-3.574-1.395l-0.008,28.889
			c-1.205-0.783-2.377-1.414-3.721-2.088l-0.008-28.107c0,0-2.736-0.848-3.02-0.93l-0.012-4.066
			c3.412,1.043,7.023,2.09,10.342,3.502V46.965z M103.031,52.217c-1.863-1.059-5.477-2.85-5.477-2.85l-0.008,14.137
			c0,0,3.881,2.059,5.484,3.061v4.848c-1.643-0.996-5.32-2.996-5.32-2.996v15.541c0,0,3.582,2.885,5.32,4.297v5.105
			c-2.549-2.164-6.625-5.391-9.4-7.502l-0.104-42.592c3.182,1.43,6.508,2.693,9.508,4.467L103.031,52.217z M103.045,45.037
			c-5.547-3.094-14.162-6.363-19.924-7.98l0.025-14.969L66.502,5.635L40.117,5.641L23.275,22.201v14.908
			c-4.994,1.467-14.191,4.537-20.348,8.09v-3.006c5.602-3.016,11.664-5.223,17.439-7.074l-0.031-14.262l18.51-18.17H67.75
			l18.271,18.227l0.021,14.229c5.896,1.887,11.422,3.895,17.002,6.887V45.037z"/>
		<path fill="#FFFFFF" d="M87.852,84.164c-0.932,0-1.627,0.68-1.627,1.635c0,0.947,0.695,1.625,1.627,1.625
			c0.91,0,1.621-0.678,1.621-1.625C89.473,84.844,88.762,84.164,87.852,84.164z M88.871,86.881h-0.539l-0.494-0.934h-0.342v0.934
			h-0.494v-2.215h1.074c0.512,0,0.859,0.09,0.859,0.678c0,0.408-0.209,0.574-0.604,0.604L88.871,86.881z"/>
		<path fill="#FFFFFF" d="M87.973,85.051h-0.477v0.561h0.594c0.242,0,0.387-0.053,0.387-0.332
			C88.477,85.051,88.189,85.051,87.973,85.051z"/>
		<polygon fill="#FFFFFF" points="37.658,40.506 37.572,62.959 40.174,62.473 40.074,40.156 		"/>
		<polygon fill="#FFFFFF" points="6.83,87.695 9.662,85.77 9.666,48.873 6.848,50.359 		"/>
		<polygon fill="#FFFFFF" points="74.656,50.41 76.941,50.984 76.947,42.039 74.656,41.471 		"/>
	</g>
	<g>
		<path fill="#231F20" d="M87.852,83.66c-1.188,0-2.129,0.951-2.129,2.139c0,1.178,0.941,2.129,2.129,2.129
			c1.184,0,2.129-0.951,2.129-2.129C89.98,84.611,89.035,83.66,87.852,83.66z M87.852,87.424c-0.932,0-1.627-0.678-1.627-1.625
			c0-0.955,0.695-1.635,1.627-1.635c0.91,0,1.621,0.68,1.621,1.635C89.473,86.746,88.762,87.424,87.852,87.424z"/>
		<path fill="#231F20" d="M88.936,85.344c0-0.588-0.348-0.678-0.859-0.678h-1.074v2.215h0.494v-0.934h0.342l0.494,0.934h0.539
			l-0.539-0.934C88.727,85.918,88.936,85.752,88.936,85.344z M88.09,85.611h-0.594v-0.561h0.477c0.217,0,0.504,0,0.504,0.229
			C88.477,85.559,88.332,85.611,88.09,85.611z"/>
		<path fill="#231F20" d="M93.631,85.857c2.775,2.111,6.852,5.338,9.4,7.502v-5.105c-1.738-1.412-5.32-4.297-5.32-4.297V68.416
			c0,0,3.678,2,5.32,2.996v-4.848c-1.604-1.002-5.484-3.061-5.484-3.061l0.008-14.137c0,0,3.613,1.791,5.477,2.85l0.004-4.484
			c-3-1.773-6.326-3.037-9.508-4.467L93.631,85.857z"/>
		<path fill="#231F20" d="M28.115,38.314l-0.078,31.244c1.254-0.418,2.398-0.814,3.785-1.23l0.014-30.871
			C30.592,37.742,29.355,37.982,28.115,38.314z"/>
		<path fill="#231F20" d="M81.949,43.334c0.283,0.082,3.02,0.93,3.02,0.93l0.008,28.107c1.344,0.674,2.516,1.305,3.721,2.088
			l0.008-28.889c0,0,3.33,1.285,3.574,1.395V42.77c-3.318-1.412-6.93-2.459-10.342-3.502L81.949,43.334z"/>
		<path fill="#231F20" d="M70.025,36.594c-3.363-0.596-6.363-0.912-9.746-1.211l0.008,3.902c1.115,0.107,2.811,0.299,2.811,0.299
			v26.363c1.383,0.199,2.836,0.377,4.098,0.604l-0.131-26.479c0,0,1.553,0.217,2.961,0.457V36.594z"/>
		<path fill="#231F20" d="M36.059,36.654l-2.215,2.908l0.033,25.896l2.004,1.805c2.268-0.547,3.967-0.822,6.156-1.158l1.84-2.416
			l0.082-25.287l-2.576-2.529C39.613,36.107,37.84,36.322,36.059,36.654z M37.572,62.959l0.086-22.453l2.416-0.35l0.1,22.316
			L37.572,62.959z"/>
		<path fill="#231F20" d="M80.688,42.174l-2.111-3.805c-1.799-0.486-3.373-0.775-5.168-1.158l-2.471,2.26l0.004,27.891
			c1.248,0.324,2.477,0.578,3.682,0.967V54.424l2.41,0.689v14.041c1.244,0.459,2.467,0.857,3.654,1.385V42.174z M76.941,50.984
			l-2.285-0.574v-8.939l2.291,0.568L76.941,50.984z"/>
		<path fill="#231F20" d="M22.23,52.691l-2.51,0.961L19.678,40.76c-1.293,0.467-2.498,0.812-3.777,1.334l-0.008,33.516
			c1.361-0.936,2.406-1.441,4.041-2.43l-0.039-15.316c0,0,1.447-0.627,2.553-1.004l0.035,14.998c1.25-0.605,2.285-1.006,3.59-1.557
			l0.01-31.438c-1.289,0.371-2.572,0.65-3.852,1.125V52.691z"/>
		<polygon fill="#231F20" points="47.023,59.291 47.023,71.814 49.834,74.576 56.654,74.617 59.43,71.814 59.352,51.834 
			56.359,48.965 51.203,48.971 51.191,33.631 55.318,33.65 55.322,43.484 59.373,43.479 59.387,32.127 56.637,29.387 49.826,29.387 
			47.023,32.139 47.023,50.828 50.064,53.715 55.176,53.715 55.211,70.75 51.104,70.75 51.104,59.291 		"/>
		<path fill="#231F20" d="M4.814,47.006l-1.951,3.723v39.764l3.086,2.068c0.518-0.322,5.363-3.258,5.672-3.428l1.812-3.887
			l0.039-39.047l-2.836-2.07C8.643,45.062,6.73,45.936,4.814,47.006z M9.662,85.77L6.83,87.695l0.018-37.336l2.818-1.486
			L9.662,85.77z"/>
	</g>
	<g>
		<path fill="#A7B1B7" d="M41.426,68.459v5.727l6.098,5.973l11.42,0.084l6.08-6.129l0.016-5.588
			c-1.035-0.176-1.834-0.297-2.891-0.428v4.822l-4.314,4.32l-9.105,0.016l-4.393-4.26v-4.879
			C43.283,68.254,42.463,68.277,41.426,68.459z"/>
		<path fill="#A7B1B7" d="M47.602,23.758l-6.176,6.049v3.586c1.051-0.135,1.865-0.174,2.906-0.275V30.99l4.426-4.316h8.984
			l4.318,4.299v2.098c1.041,0.098,1.891,0.227,2.945,0.359v-3.619l-6.031-6.053H47.602z"/>
		<path fill="#A7B1B7" d="M86.021,20.914L67.75,2.688H38.846l-18.51,18.17l0.031,14.262c-5.775,1.852-11.838,4.059-17.439,7.074
			v3.006c6.156-3.553,15.354-6.623,20.348-8.09V22.201L40.117,5.641l26.385-0.006l16.645,16.453l-0.025,14.969
			c5.762,1.617,14.377,4.887,19.924,7.98v-3.008c-5.58-2.992-11.105-5-17.002-6.887L86.021,20.914z"/>
		<path fill="#A7B1B7" d="M83.139,81.67L66.52,98.443l-26.48-0.016L23.281,81.762v-7.848c-3.053,1.486-5.195,2.799-7.385,4.406
			v3.459c1.322-1.049,2.953-2.428,4.439-3.297v4.398l18.559,18.449l28.746,0.029l18.385-18.398l-0.004-4.312
			c2.082,1.248,3.924,2.502,5.633,3.955v-3.396c-2.502-1.914-5.312-3.781-8.504-5.293L83.139,81.67z"/>
	</g>
	<g>
		<path fill="#CE1141" d="M41.191,8.334L25.943,23.35v13.021c4.34-1.211,8.506-1.957,12.799-2.604v-5.141l7.73-7.537h13.625
			l7.578,7.588v5.059c4.289,0.633,8.434,1.424,12.773,2.621V23.418L65.365,8.334H41.191z"/>
		<path fill="#CE1141" d="M25.969,80.619l15.168,14.936l24.289,0.189l15.033-15.195v-7.783c-3.998-1.695-8.064-2.928-12.766-3.85
			l-0.008,6.33l-7.52,7.689l-13.754-0.098l-7.674-7.574v-6.307c-4.531,0.896-8.967,2.182-12.77,3.822V80.619z"/>
	</g>
</g>
</svg>
