<?xml version="1.0" encoding="utf-8"?>
<!-- Generator: Adobe Illustrator 16.0.0, SVG Export Plug-In . SVG Version: 6.00 Build 0)  -->
<!DOCTYPE svg PUBLIC "-//W3C//DTD SVG 1.0//EN" "http://www.w3.org/TR/2001/REC-SVG-20010904/DTD/svg10.dtd">
<svg version="1.0" id="Artwork" xmlns="http://www.w3.org/2000/svg" xmlns:xlink="http://www.w3.org/1999/xlink" x="0px" y="0px"
	 width="106px" height="105px" viewBox="0 0 106 105" enable-background="new 0 0 106 105" xml:space="preserve">
<g>
	<g>
		<path fill="#E31837" d="M59.104,41.617c-2.135,1.991-5.286,2.987-9.471,2.987h-8.399v-18.15h10.651
			c3.466,0,6.112,1.118,7.926,3.357c1.265,1.49,1.896,3.352,1.896,5.594C61.705,37.806,60.835,39.882,59.104,41.617z M88.761,91.538
			L88.66,78.326l-5.978,0.106L69.557,54.635c9.214-4.143,13.822-10.651,13.822-19.514c0-6.129-2.107-11.272-6.323-15.416
			c-4.451-4.312-10.453-6.464-18.007-6.464l-44.385,0.065v13.113l5.066,0.036v51.978l-5.066-0.106v13.212h31.479V78.326
			l-5.239,0.106V57.229h9.326l11.207,21.244l-6.588-0.131l-0.027,13.203L88.761,91.538z"/>
		<path fill="#231F20" d="M53.484,92.569l0.033-15.375l6.397-0.029L49.771,58.224l-8.273,0.236v18.705h5.477V92.53H13.832V77.165
			h4.611V27.652h-4.611V12.313l45.212-0.065c7.717,0,13.954,2.249,18.536,6.685c4.402,4.328,6.632,9.771,6.632,16.187
			c0,8.964-4.505,15.685-13.396,19.991l12.176,22.055h6.455v15.404H53.484z M55.328,79.364v11.004h32.275V79.364h-5.366
			L68.289,54.141l0.974-0.437c8.939-4.016,13.285-10.095,13.285-18.584c0-5.793-2.025-10.721-6.022-14.648
			c-4.271-4.138-10.185-6.023-17.509-6.023h-43.34v11.003h4.611v53.913h-4.611v11.004h29.509V79.364h-5.533V56.258h11.065
			L62.96,79.364H55.328z M49.633,45.599h-9.981V25.462h12.232c3.689,0,6.557,1.232,8.525,3.659c1.408,1.662,2.13,3.782,2.13,6.285
			c0,2.699-0.978,5.045-2.9,6.973C57.34,44.523,53.981,45.599,49.633,45.599z M41.497,43.613h8.136c3.968,0,6.981-0.936,8.957-2.776
			c1.529-1.534,2.284-3.317,2.284-5.432c0-1.981-0.538-3.58-1.648-4.887c-1.654-2.042-4.12-3.07-7.34-3.07H41.497V43.613z"/>
	</g>
	<g>
		<path fill="#E31837" d="M91.849,90.348c0-1.374,0.938-2.391,2.037-2.391c1.097,0,2.029,1.017,2.029,2.391
			c0,1.392-0.933,2.403-2.029,2.403C92.787,92.751,91.849,91.739,91.849,90.348z M93.886,92.354c0.908,0,1.626-0.854,1.626-2.006
			c0-1.132-0.717-1.986-1.626-1.986c-0.922,0-1.638,0.854-1.638,1.986C92.248,91.499,92.964,92.354,93.886,92.354z M93.463,91.739
			h-0.354v-2.766h0.886c0.546,0,0.82,0.241,0.82,0.789c0,0.488-0.262,0.706-0.601,0.759l0.657,1.217h-0.395l-0.608-1.195h-0.405
			V91.739L93.463,91.739z M93.88,90.183c0.3,0,0.564-0.022,0.564-0.45c0-0.339-0.262-0.402-0.506-0.402h-0.477v0.853H93.88
			L93.88,90.183z"/>
	</g>
</g>
</svg>
