<?xml version="1.0" encoding="utf-8"?>
<!-- Generator: Adobe Illustrator 16.0.0, SVG Export Plug-In . SVG Version: 6.00 Build 0)  -->
<!DOCTYPE svg PUBLIC "-//W3C//DTD SVG 1.0//EN" "http://www.w3.org/TR/2001/REC-SVG-20010904/DTD/svg10.dtd">
<svg version="1.0" id="Layer_1" xmlns="http://www.w3.org/2000/svg" xmlns:xlink="http://www.w3.org/1999/xlink" x="0px" y="0px"
	 width="106px" height="105px" viewBox="7.5 -6.493 106 105" enable-background="new 7.5 -6.493 106 105" xml:space="preserve">
<g id="WHITE">
	<g>
		<polygon fill="#FFFFFF" points="68.862,39.103 70.209,39.103 71.286,33.957 69.939,33.957 		"/>
		<polygon fill="#FFFFFF" points="73.43,30.508 71.543,28.956 61.855,28.956 54.152,33.679 49.408,56.366 50.547,57.36 55.3,34.737 
			62.185,30.508 		"/>
		<polygon fill="#FFFFFF" points="70.873,48.796 66.835,48.796 65.07,57.237 57.303,57.237 56.979,58.788 66.092,58.788 
			67.856,50.349 70.55,50.349 		"/>
		<path fill="#FFFFFF" d="M57.758,16.392l0.322-1.555l-7.99,0.002c0.072,0.067,1.002,0.934,1.002,0.934l-5.688,27.385h-7.646
			l-0.323,1.552h8.99l5.883-28.318H57.758z"/>
		<polygon fill="#FFFFFF" points="42.295,14.838 34.306,14.836 35.309,15.77 29.814,42.227 30.959,43.186 36.545,16.388 
			41.973,16.39 		"/>
		<path fill="#FFFFFF" d="M88.066,58.995c-1.747,0-6.896,0-9.36,0c-0.18,0.867-0.323,1.553-0.323,1.553s6.133,0,9.361,0
			C87.842,60.077,87.947,59.571,88.066,58.995z"/>
		<polygon fill="#FFFFFF" points="66.728,77.49 68.071,77.49 74.347,47.313 94.556,47.313 94.878,45.759 72.12,45.759 
			73.123,46.693 		"/>
	</g>
</g>
<g id="UCF_SILVER">
	<path fill="#BCBEC0" d="M82.066,38.486l1.735-8.299l-10.322-8.504H62.838l2.893-13.93L17,7.748L28.562,18.51l-5.548,26.712
		l10.079,8.432h10.539l-1.187,5.674l9.877,8.632h10.043l-3.488,16.802h19.476l2.676-12.89h3.812l0.501-2.192h6.848l2.747-13.238
		h4.062l3.729-17.955H82.066L82.066,38.486z M80.543,71.033l0.558-1.927h-0.448l0.158-0.544h1.441l-0.155,0.544h-0.451l-0.559,1.927
		H80.543z M84.166,71.033h-0.545l0.26-1.423h-0.006l-0.913,1.423h-0.216l-0.069-1.423h-0.005l-0.587,1.423h-0.542l1.072-2.471h0.535
		l0.042,1.318l0.831-1.318h0.542L84.166,71.033z M97.514,54.205h-4.062l-2.747,13.238H79.998l-3.133,15.083H61.291l3.489-16.802
		H52.946l-8.359-7.307l1.464-6.999H33.696l-8.535-7.141l5.53-26.631l-8.229-7.663l40.856,0.005l-2.952,14.205l0.451-0.276h12.067
		l8.77,7.223l-2.007,9.581h20.667L97.514,54.205z"/>
</g>
<g id="UCF_GOLD">
	<path fill="#B4975A" d="M71.693,47.301h-5.849l-1.767,8.439h-6.504l3.944-18.844l-3.232-2.998h10.361l-1.4,6.7h9.337l1.663-7.945
		L71.94,27.46H61.547l-5.482,3.362l3.631-17.479H46.438l3.231,3.008l-5.256,25.312H38.03l5.882-28.321L30.653,13.34l3.233,3.008
		L28.38,42.862l6.22,5.203h10.986l4.926-3.213l-2.535,12.124l5.959,5.208h11.087l4.13-2.65l-4.037,19.452h9.399l3.131-15.082h10.705
		L89.68,57.5H78.976l0.796-3.828l-3.232-3.008h18.622l1.328-6.4H68.469L71.693,47.301z M78.706,58.995c2.464,0,7.613,0,9.36,0
		c-0.12,0.576-0.225,1.083-0.322,1.553c-3.229,0-9.361,0-9.361,0S78.526,59.863,78.706,58.995z M70.209,39.103h-1.347l1.079-5.145
		h1.345L70.209,39.103z M30.959,43.186l-1.146-0.959l5.495-26.457l-1.003-0.935l7.99,0.002l-0.322,1.553l-5.43-0.002L30.959,43.186z
		 M46.426,44.711h-8.99l0.323-1.552h7.646l5.688-27.385c0,0-0.931-0.867-1.002-0.934l7.991-0.002l-0.322,1.555H52.31L46.426,44.711z
		 M50.547,57.36l-1.139-0.994l4.744-22.687l7.703-4.724h9.688l1.887,1.552H62.185l-6.885,4.23L50.547,57.36z M67.856,50.349
		l-1.765,8.439h-9.113l0.324-1.552h7.768l1.765-8.44h4.038l-0.324,1.553H67.856z M94.878,45.759l-0.322,1.552H74.347l-6.275,30.18
		h-1.344l6.396-30.798l-1.003-0.934H94.878z"/>
</g>
<g id="BLACK">
	<g>
		<path d="M79.646,40.722l2.007-9.581l-8.77-7.223H60.816l-0.45,0.276l2.95-14.206L22.461,9.984l8.229,7.662l-5.53,26.631
			l8.534,7.141H46.05l-1.464,6.999l8.36,7.307h11.833l-3.49,16.802h15.575l3.133-15.083h10.705l2.749-13.238h4.062l2.799-13.482
			L79.646,40.722L79.646,40.722z M95.162,50.663H76.54l3.231,3.009l-0.796,3.827h10.706l-1.33,6.403H77.646l-3.131,15.082h-9.399
			l4.037-19.451l-4.13,2.649H53.936l-5.959-5.208l2.535-12.123l-4.926,3.212H34.6l-6.22-5.203l5.506-26.514l-3.233-3.008
			l13.257,0.003l-5.881,28.32h6.383l5.256-25.312l-3.23-3.008h13.256l-3.63,17.479l5.483-3.362H71.94l6.306,5.193l-1.663,7.945
			h-9.336l1.4-6.7H58.287l3.233,2.998L57.574,55.74h6.504l1.767-8.439h5.849l-3.225-3.038H96.49L95.162,50.663z"/>
		<polygon points="82.097,69.107 82.252,68.563 80.81,68.563 80.652,69.107 81.101,69.107 80.543,71.033 81.087,71.033 
			81.646,69.107 		"/>
		<polygon points="83.192,69.881 83.15,68.563 82.615,68.563 81.543,71.033 82.085,71.033 82.672,69.611 82.677,69.611 
			82.746,71.033 82.962,71.033 83.875,69.611 83.881,69.611 83.621,71.033 84.166,71.033 84.564,68.563 84.023,68.563 		"/>
	</g>
</g>
</svg>
