<?xml version="1.0" encoding="utf-8"?>
<!-- Generator: Adobe Illustrator 16.0.4, SVG Export Plug-In . SVG Version: 6.00 Build 0)  -->
<!DOCTYPE svg PUBLIC "-//W3C//DTD SVG 1.1//EN" "http://www.w3.org/Graphics/SVG/1.1/DTD/svg11.dtd">
<svg version="1.1" id="Layer_1" xmlns="http://www.w3.org/2000/svg" xmlns:xlink="http://www.w3.org/1999/xlink" x="0px" y="0px"
	 width="132px" height="82px" viewBox="0 0 132 82" enable-background="new 0 0 132 82" xml:space="preserve">
<g>
	<path fill="#231F20" d="M97.91,16.916L85.697,32.708l-5.852-15.792H62.939L66.374,0H7.036L2.144,23.236h3.533
		c-2.06,9.583-5.315,24.728-5.319,24.75c-0.952,4.541,0.017,9.01,2.659,12.264c2.44,3.005,6.01,4.659,10.052,4.659h22.802
		c2.822,0,5.474-0.909,7.804-2.392l-4.229,19.251h30.407l2.809-13.083c0.337,0.759,5.307,11.91,5.307,11.91l5.782-7.444
		l-1.832,8.617h30.036l5.13-23.479h-3.533l3.784-17.818l3.345-0.007l4.884-23.548H97.91z"/>
	<path fill="#D5D7D8" d="M98.949,19.031L85.038,37.019l-6.665-17.988H60.351l3.434-16.916H37.343L28.557,43.71H26.61l8.787-41.594
		H8.752l-4,19.005h3.544c-1.963,9.131-5.865,27.283-5.868,27.299c-0.821,3.914-0.008,7.74,2.231,10.497
		c2.03,2.5,5.017,3.877,8.409,3.877h22.802c6.957,0,13.123-6.844,14.521-13.253l2.395-11.18h1.635l-4.744,22.2l-3.381,0.006
		l-4.22,19.086h26.066l3.818-17.779c1.251,2.843,6.503,14.635,6.503,14.635l9.275-11.938l-3.207,15.082h25.72l4.206-19.248h-3.516
		l4.681-22.044l3.337-0.008l4.007-19.321H98.949z"/>
	<path fill="#FFFFFF" d="M39.059,4.231l-8.787,41.594h-6.271l8.786-41.594H10.469l-3.11,14.773h3.555
		C9.269,26.659,4.5,48.845,4.499,48.853c-0.689,3.288-0.032,6.47,1.803,8.731c1.621,1.995,4.024,3.094,6.767,3.094h22.802
		c5.85,0,11.256-6.099,12.453-11.581l6.447-30.092h3.427l3-14.773H39.059z"/>
	<path fill="#FFFFFF" d="M99.987,21.147L84.379,41.329l-7.478-20.182H56.563l-3.269,15.077l3.744,0.021l-5.632,26.354l-3.424-0.004
		l-3.273,14.943h21.726l4.838-22.532c2.129,4.923,7.687,17.418,7.687,17.418L91.726,55.99l-4.583,21.547h21.405l3.281-15.017h-3.5
		l5.579-26.272l3.329-0.007l3.13-15.094H99.987z"/>
	<path fill="#A90533" d="M58.609,6.347l-2.14,10.543H53.06l-6.805,31.764c-0.951,4.36-5.469,9.909-10.384,9.909H13.069
		c-4.915,0-7.531-4.36-6.5-9.273l6.964-32.399H9.966l2.219-10.543h17.993l-8.787,41.594h10.596l8.786-41.594H58.609z"/>
	<path fill="#A90533" d="M101.025,23.263L83.72,45.639l-8.291-22.376H58.285l-2.254,10.866h3.622l-6.52,30.507l-3.423,0.01
		l-2.372,10.776h17.386L70.6,48.054c2.817,6.68,5.876,13.604,8.854,20.284l16.26-20.928l-5.957,28.012h17.088l2.357-10.786h-3.486
		l6.477-30.498l3.32-0.009l2.254-10.866H101.025z"/>
	<g>
		<polygon fill="#231F20" points="129.323,16.923 127.439,16.923 127.329,17.439 127.957,17.439 127.61,19.072 128.238,19.072 
			128.585,17.439 129.213,17.439 		"/>
		<polygon fill="#231F20" points="131.182,16.923 130.534,18.16 130.405,16.923 129.515,16.923 129.058,19.072 129.626,19.072 
			129.955,17.526 130.095,19.072 130.58,19.072 131.375,17.527 131.047,19.072 131.616,19.072 132.073,16.923 		"/>
	</g>
</g>
</svg>
