<?xml version="1.0" encoding="utf-8"?>
<!-- Generator: Adobe Illustrator 16.0.0, SVG Export Plug-In . SVG Version: 6.00 Build 0)  -->
<!DOCTYPE svg PUBLIC "-//W3C//DTD SVG 1.0//EN" "http://www.w3.org/TR/2001/REC-SVG-20010904/DTD/svg10.dtd">
<svg version="1.0" id="Layer_1" xmlns="http://www.w3.org/2000/svg" xmlns:xlink="http://www.w3.org/1999/xlink" x="0px" y="0px"
	 width="135.609px" height="93.404px" viewBox="0 0 135.609 93.404" enable-background="new 0 0 135.609 93.404"
	 xml:space="preserve">
<path fill="#002D62" stroke="#002D62" stroke-width="0" stroke-linecap="square" stroke-miterlimit="2" d="M133.267,43.043
	c-1.484-10.038-7.358-18.656-15.782-25.401C97.731,2.988,70.362-1.434,45.348,4.699C28.21,9.186,8.134,20.611,3.131,39.492
	c-3.615,12.813,1.872,24.852,11.394,33.309c-1.355-2.26-2.905-4.454-3.873-6.907c-4.745-10.683-3.97-25.756,4.034-34.696
	c8.585-9.876,19.527-14.686,31.21-17.364h0.775c-6.875,3.809-13.717,8.489-19.43,14.718c-9.134,9.166-12.265,23.271-7.972,35.729
	c4.26,14.17,19.236,23.271,32.824,25.627c21.366,3.713,43.217,0.227,60.42-10.23C125.295,71.735,135.042,58.567,133.267,43.043z
	 M120.743,55.049c-4.292,3.744-9.295,5.681-14.039,8.295c-4.681,2.195-9.36,4.357-14.169,6.197
	c-0.355,0.193,0.097,0.371,0.322,0.598l0.29,0.241c6.778-2.292,13.524-4.615,20.141-7.262c-0.678,2.323-1.937,4.712-3.001,7.036
	c-1.518,2.389-2.736,7.407-10.555,6.423l-19.269-3.002c-9.263,2.292-18.204,5.714-28.435,5.099c-3.68-0.354-7.101-2.129-9.231-5.422
	c-1.356-2.452-2.195-5.229-1.937-8.294c0.484,0.354,0.839,1.032,1.259,1.549c9.102,10.394,25.239,8.489,37.472,6.067
	c8.423-2.775,16.589-6.132,24.335-10.457c3.002-2.098,4.971-5.131,4.648-8.844c-0.646-7.617-9.005-12.135-14.943-14.943
	c-4.777-1.678-9.748-3.131-15.202-2.938l12.007-5.422c0.839-0.226,1.226,0.613,1.549,1.162c0.452,1.194,0.549,2.711-0.227,3.776
	c2.236,0.532,3.519,0.839,5.262,1.259c6.745,2.355,13.813,5.681,18.042,12.297c1.162,2.131,1.42,4.873,0.71,7.295l0.161,0.226
	c3.39-1.162,4.607-4.083,5.584-7.585c-0.097-4.002-4.261-6.358-6.972-8.746c-4.39-3.26-9.037-5.842-13.556-8.779
	c-2.84-1.679-3.809-5.357-6.843-6.584c-5.454-1.744-11.975-0.711-17.816-0.452c-10.134,1.097-19.591,3.841-27.789,9.618
	c0.904-7.359,2.582-14.557,5.1-21.303c1.194-2.742,2.582-6.196,5.745-7.294c4.874,0.161,6.907,5.713,9.521,8.908
	c9.134,1.646,17.783,4.454,26.272,7.746c2.743,1.356,3.97,4.583,6.326,6.745c7.035,5.713,15.686,8.489,21.463,16.171
	C125.037,48.174,122.922,52.023,120.743,55.049z M65.262,12.672c0.226,0.451,0.678,0.773,0.613,1.322
	c-5.681,2.356-10.393,8.393-13.395,13.492h-0.162c0.839-6.036,2.389-11.749,4.971-17.042c0.742-1.001,1.194-2.389,2.485-2.872
	C62.583,7.766,63.616,10.896,65.262,12.672z"/>
<path fill="#002D62" d="M125.298,85.018c-1.909,0-3.448-1.539-3.448-3.449c-0.011-1.898,1.539-3.447,3.448-3.447
	c1.898,0,3.448,1.549,3.448,3.447C128.746,83.479,127.196,85.008,125.298,85.018z M125.288,78.52c-1.68,0-3.049,1.371-3.038,3.059
	c0,1.68,1.358,3.049,3.048,3.039c1.679,0,3.048-1.359,3.048-3.049C128.346,79.891,126.977,78.52,125.288,78.52z M124.777,82.828
	c0,0.24,0.25,0.291,0.47,0.291v0.18h-1.599v-0.18c0.23,0,0.49-0.07,0.49-0.262V79.98c0-0.291-0.041-0.301-0.439-0.301V79.5h1.668
	c0.26,0,0.54,0.01,0.77,0.1c0.16,0.061,0.4,0.191,0.52,0.4c0.261,0.459,0.021,0.969-0.199,1.16c-0.11,0.088-0.36,0.27-0.699,0.279
	l1.198,1.539c0.11,0.141,0.23,0.141,0.36,0.141v0.18h-0.949l-1.329-1.77h-0.261V82.828z M124.777,81.299
	c0.211-0.01,0.461,0.01,0.72-0.08c0.45-0.141,0.64-0.43,0.591-0.828c-0.051-0.531-0.42-0.65-0.58-0.65h-0.529
	c-0.101,0-0.201,0.051-0.201,0.221V81.299z"/>
</svg>
