<?xml version="1.0" encoding="utf-8"?>
<!-- Generator: Adobe Illustrator 16.0.4, SVG Export Plug-In . SVG Version: 6.00 Build 0)  -->
<!DOCTYPE svg PUBLIC "-//W3C//DTD SVG 1.1//EN" "http://www.w3.org/Graphics/SVG/1.1/DTD/svg11.dtd">
<svg version="1.1" id="Layer_1" xmlns="http://www.w3.org/2000/svg" xmlns:xlink="http://www.w3.org/1999/xlink" x="0px" y="0px"
	 width="1040.021px" height="117.167px" viewBox="0 0 1040.021 117.167" enable-background="new 0 0 1040.021 117.167"
	 xml:space="preserve">
<path fill="#FFFFFF" d="M151.826,22.616c12.592,11.498,20.972,26.196,17.491,43.645c-4.777,26.236-32.875,42.957-56.56,47.977
	c-19.798,4.859-42.998,3.32-61.986-2.023C31.702,106.18,10.123,93.589,2.188,73.223c-6.316-18.987,1.619-38.017,16.438-50.607
	C39.192,5.368,64.416-1.231,92.473,0.186C114.538,2.128,134.862,8.283,151.826,22.616z"/>
<path fill="#002D62" d="M155.163,29.103c10.042,11.478,15.36,27.344,10.127,42.535c-12.238,29.96-44.897,41.186-74.774,42.957
	c-24.812,0.759-49.624-4.305-62.789-26.079c-8.188-14.009-7.595-33.588,1.856-46.838c7.258-10.38,18.23-18.229,28.949-24.307
	c-18.99,3.376-40.849,14.854-47.177,35.024c-3.375,12.237-1.52,26.922,5.401,37.133c-1.856-0.844-3.966-3.459-5.654-5.315
	C2.323,73.664,0.466,57.544,5.615,44.716C16.755,19.734,43.508,7.159,69.079,3.615C101.487-0.605,132.629,6.99,155.163,29.103z
	 M74.143,6.062c-2.025,0.591-3.713,2.7-4.726,4.473c-4.895,9.537-6.836,20.424-8.439,31.395
	c15.359-10.632,34.434-13.671,54.266-12.574c4.979,0.083,7.258,5.486,10.128,8.271c8.693,6.159,18.988,10.802,25.909,19.073
	c2.956,3.713-0.168,7.932-2.025,11.139c-1.645,1.287-2.171,1.498-3.628,1.604c1.013-3.207-0.084-6.583-1.436-9.283
	c-7.004-9.538-17.807-14.095-28.777-16.205c-0.254-1.183,0.422-2.448,0.252-3.883c-0.336-1.35-1.266-2.953-2.869-2.193L99.04,44.292
	c4.22,0.338,8.438,0.676,12.322,1.688c10.126,3.375,23.376,9.031,25.149,21.436c0.084,4.56-2.278,8.609-6.33,10.973
	c-9.959,5.484-20.593,9.705-31.395,13.334c-15.951,3.037-36.374,4.559-47.176-9.113c-0.337,2.363,0.506,4.221,0.844,6.246
	c1.519,5.314,5.992,8.605,11.139,9.957c13.504,0.932,25.234-2.699,37.473-6.244c10.463,0.846,26.234,4.778,30.973,3.629
	c5.97-3.49,7.553-9.769,10.294-16.795c-9.494,3.544-15.929,6.075-25.656,9.114l-0.675-0.677
	c12.069-5.906,24.896-10.379,35.699-18.817c2.026-3.97,4.98-8.524,2.787-13.167c-9.368-12.743-25.403-14.178-33.589-28.103
	c-10.972-5.064-22.787-8.187-34.855-10.802C83.174,13.067,80.22,5.978,74.143,6.062z M76.928,10.114
	c-1.098-0.591-2.279-0.76-3.208,0.168c-4.726,7.004-6.667,15.613-7.679,23.714c3.713-6.244,9.537-13.587,16.373-16.625
	C81.402,14.839,79.291,12.139,76.928,10.114z"/>
<path fill="#FFFFFF" d="M153.372,99.18c-2.059,0-3.729,1.671-3.718,3.719c0,2.06,1.659,3.72,3.718,3.72
	c2.048-0.012,3.72-1.66,3.72-3.72C157.091,100.851,155.42,99.18,153.372,99.18z M153.372,106.186
	c-1.821,0.013-3.287-1.465-3.287-3.274c-0.011-1.822,1.466-3.3,3.276-3.3c1.822,0,3.299,1.478,3.299,3.287
	C156.66,104.721,155.183,106.186,153.372,106.186z M153.868,102.757c0.368-0.01,0.636-0.203,0.755-0.301
	c0.236-0.205,0.494-0.754,0.214-1.25c-0.128-0.228-0.388-0.367-0.561-0.433c-0.247-0.099-0.549-0.106-0.83-0.106h-1.8v0.192
	c0.431,0,0.476,0.011,0.476,0.323v3.104c0,0.203-0.28,0.28-0.529,0.28v0.192h1.726v-0.192c-0.238,0-0.509-0.055-0.509-0.313v-1.399
	h0.281l1.434,1.908h1.023v-0.193c-0.14,0-0.269,0-0.387-0.149L153.868,102.757z M152.811,102.608v-1.442
	c0-0.185,0.108-0.237,0.217-0.237h0.572c0.17,0,0.57,0.129,0.624,0.7c0.053,0.431-0.151,0.742-0.637,0.896
	C153.308,102.621,153.039,102.596,152.811,102.608z"/>
<g>
	<path fill="#FFFFFF" d="M194.99,32.877h23.186c12.817,0,17.786,8.137,17.786,16.49c0,8.353-4.968,16.489-17.786,16.489h-11.881
		v18.435H194.99V32.877z M206.295,57.071h8.785c5.256,0,9.937-1.152,9.937-7.705c0-6.553-4.681-7.705-9.937-7.705h-8.785V57.071z"/>
	<path fill="#FFFFFF" d="M243.014,32.877h38.452v9.505H254.32v11.017h24.914v8.785H254.32v12.601h27.722v9.506h-39.027
		L243.014,32.877L243.014,32.877z"/>
	<path fill="#FFFFFF" d="M289.669,32.877h11.233l21.458,34.492h0.144V32.877h10.585v51.414h-11.305l-21.386-34.418h-0.144v34.418
		h-10.585V32.877L289.669,32.877z"/>
	<path fill="#FFFFFF" d="M343.021,32.877h11.231l21.458,34.492h0.146V32.877h10.585v51.414h-11.308L353.75,49.871h-0.145v34.419
		h-10.584V32.877z"/>
	<path fill="#FFFFFF" d="M424.093,67.224c0,6.84,5.329,9.505,11.377,9.505c3.961,0,10.009-1.151,10.009-6.409
		c0-5.544-7.702-6.48-15.265-8.496c-7.633-2.017-15.338-4.97-15.338-14.618c0-10.513,9.938-15.554,19.226-15.554
		c10.729,0,20.596,4.681,20.596,16.562h-10.944c-0.36-6.192-4.753-7.776-10.153-7.776c-3.601,0-7.774,1.512-7.774,5.832
		c0,3.96,2.448,4.465,15.337,7.777c3.744,0.936,15.266,3.312,15.266,14.978c0,9.434-7.417,16.489-21.386,16.489
		c-11.377,0-22.034-5.616-21.89-18.289L424.093,67.224L424.093,67.224z"/>
	<path fill="#FFFFFF" d="M474.493,42.382h-15.409v-9.505h42.123v9.505h-15.409v41.909h-11.305V42.382L474.493,42.382z"/>
	<path fill="#FFFFFF" d="M515.821,32.877h11.593l19.226,51.414h-11.735l-3.89-11.449h-19.226l-4.032,11.449h-11.449L515.821,32.877z
		 M514.741,64.416h13.321l-6.48-18.866h-0.145L514.741,64.416z"/>
	<path fill="#FFFFFF" d="M557.149,42.382H541.74v-9.505h42.123v9.505h-15.409v41.909h-11.305V42.382z"/>
	<path fill="#FFFFFF" d="M589.763,32.877h38.451v9.505h-27.146v11.017h24.914v8.785h-24.914v12.601h27.723v9.506h-39.027
		L589.763,32.877L589.763,32.877z"/>
	<path fill="#FFFFFF" d="M656.434,32.877h36.146v9.505h-24.842v11.881h21.528v8.785h-21.528v21.242h-11.307L656.434,32.877
		L656.434,32.877z"/>
	<path fill="#FFFFFF" d="M722.171,31.653c15.913,0,25.273,11.881,25.273,27.146c0,14.833-9.36,26.714-25.273,26.714
		c-15.914,0-25.272-11.881-25.272-26.714C696.896,43.534,706.257,31.653,722.171,31.653z M722.171,76.009
		c10.152,0,13.969-8.641,13.969-17.209c0-9.001-3.814-17.642-13.969-17.642s-13.97,8.641-13.97,17.642
		C708.202,67.369,712.018,76.009,722.171,76.009z"/>
	<path fill="#FFFFFF" d="M778.188,31.653c15.912,0,25.272,11.881,25.272,27.146c0,14.833-9.36,26.714-25.272,26.714
		c-15.913,0-25.273-11.881-25.273-26.714C752.913,43.534,762.273,31.653,778.188,31.653z M778.188,76.009
		c10.151,0,13.97-8.641,13.97-17.209c0-9.001-3.816-17.642-13.97-17.642c-10.152,0-13.971,8.641-13.971,17.642
		C764.217,67.369,768.034,76.009,778.188,76.009z"/>
	<path fill="#FFFFFF" d="M822.538,42.382h-15.409v-9.505h42.123v9.505h-15.409v41.909h-11.305V42.382z"/>
	<path fill="#FFFFFF" d="M855.152,32.877h24.191c9.793,0,16.418,3.168,16.418,12.745c0,5.041-2.521,8.569-6.982,10.729
		c6.265,1.8,9.433,6.625,9.433,13.033c0,10.439-8.856,14.904-18.146,14.904h-24.914V32.877L855.152,32.877z M866.457,53.687h11.449
		c3.96,0,6.912-1.8,6.912-6.121c0-4.896-3.744-5.905-7.776-5.905h-10.585V53.687L866.457,53.687z M866.457,75.505h12.097
		c4.465,0,8.354-1.44,8.354-6.771c0-5.256-3.312-7.345-8.139-7.345h-12.312L866.457,75.505L866.457,75.505z"/>
	<path fill="#FFFFFF" d="M919.88,32.877h11.593L950.7,84.291h-11.737l-3.888-11.449h-19.228l-4.03,11.449h-11.449L919.88,32.877z
		 M918.8,64.416h13.321l-6.48-18.866h-0.145L918.8,64.416z"/>
	<path fill="#FFFFFF" d="M955.159,32.877h11.305v41.908h25.061v9.506H955.16L955.159,32.877L955.159,32.877z"/>
	<path fill="#FFFFFF" d="M997.854,32.877h11.307v41.908h25.059v9.506h-36.361V32.877H997.854z"/>
</g>
<path fill="#FFFFFF" d="M638.896,84.431c-2.597,0-4.695-2.1-4.695-4.695c-0.008-2.581,2.099-4.688,4.695-4.688
	c2.572,0,4.68,2.106,4.68,4.688C643.576,82.332,641.469,84.416,638.896,84.431z M638.881,75.592c-2.286,0-4.144,1.857-4.136,4.159
	c0,2.284,1.85,4.151,4.151,4.136c2.269,0,4.136-1.852,4.136-4.151C643.032,77.45,641.165,75.592,638.881,75.592z M638.181,81.447
	c0,0.333,0.342,0.396,0.638,0.396v0.24h-2.177v-0.24c0.319,0,0.67-0.094,0.67-0.351v-3.917c0-0.389-0.055-0.404-0.592-0.404v-0.249
	h2.27c0.342,0,0.731,0.016,1.042,0.141c0.218,0.077,0.545,0.265,0.707,0.544c0.351,0.621,0.023,1.306-0.271,1.57
	c-0.147,0.123-0.498,0.374-0.956,0.388l1.633,2.1c0.146,0.179,0.317,0.179,0.489,0.179v0.24h-1.29l-1.805-2.394h-0.357V81.447z
	 M638.181,79.37c0.295-0.008,0.63,0.016,0.98-0.102c0.614-0.201,0.87-0.589,0.808-1.133c-0.07-0.717-0.575-0.887-0.792-0.887h-0.717
	c-0.146,0-0.279,0.078-0.279,0.303V79.37z"/>
</svg>
